<svg width="80" height="81" viewBox="0 0 80 81" fill="none" xmlns="http://www.w3.org/2000/svg">
<path d="M24.101 5.94737C18.2642 5.94737 11.9106 2.79147 8.32342 2.80657C4.78182 2.82167 2.01542 5.64537 2.00022 9.08817V9.11837C1.96982 12.682 5.16181 18.9938 5.16181 24.7922C5.16181 30.5906 1.98502 36.9024 2.00022 40.466C2.01542 43.9843 4.85782 46.7325 8.32342 46.7476C11.789 46.7627 14.6162 44.0145 14.6466 40.466C14.677 36.9024 11.485 30.5755 11.485 24.7922C11.485 22.346 12.0474 19.7941 12.7162 17.4083C13.2482 15.4755 14.7682 13.9655 16.6986 13.4521C19.1002 12.8028 21.6538 12.2441 24.101 12.2441C29.9378 12.2441 36.2914 15.4 39.8786 15.3849C43.4354 15.3547 46.2018 12.5461 46.2018 9.10327C46.2018 5.66047 43.4354 2.85187 39.8786 2.82167C36.2914 2.79147 29.9226 5.94737 24.101 5.94737Z" fill="#6366F1" stroke="#6366F1" stroke-width="4"/>
<path d="M24.101 74.8638C18.2642 74.8638 11.9106 78.0197 8.32342 78.0046C4.78182 77.9895 2.01542 75.1658 2.00022 71.723V71.6928C1.96982 68.1292 5.16181 61.8174 5.16181 56.019C5.16181 50.2206 1.98502 43.9088 2.00022 40.3452C2.01542 36.8269 4.85782 34.0787 8.32342 34.0636C11.789 34.0485 14.6162 36.7967 14.6466 40.3452C14.677 43.9088 11.485 50.2357 11.485 56.019C11.485 58.4652 12.0474 61.0171 12.7162 63.4029C13.2482 65.3357 14.7682 66.8457 16.6986 67.3591C19.1002 68.0084 21.6538 68.5671 24.101 68.5671C29.9378 68.5671 36.2914 65.4112 39.8786 65.4263C43.4354 65.4565 46.2018 68.2651 46.2018 71.7079C46.2018 75.1507 43.4354 77.9593 39.8786 77.9895C36.2914 78.0197 29.9226 74.8638 24.101 74.8638Z" fill="#6366F1" stroke="#6366F1" stroke-width="4"/>
<path d="M77.8177 9.08833C77.8177 5.64553 75.0665 2.83693 71.4945 2.80673C67.9073 2.77653 61.5385 5.94753 55.7169 5.94753C49.8801 5.94753 43.5265 2.79163 39.9393 2.80673C36.3825 2.83693 33.6009 5.64553 33.6161 9.08833C33.6313 12.516 36.3825 15.3548 39.9393 15.3699C43.5265 15.385 49.8953 12.2291 55.7169 12.2291C61.5537 12.2291 67.9073 15.4001 71.4945 15.3699C75.0513 15.3397 77.8177 12.5311 77.8177 9.08833Z" fill="#6366F1" stroke="#6366F1" stroke-width="4"/>
<path d="M14.4054 76.8887C17.4167 76.0218 20.8394 75.0366 24.1009 75.0366C27.3418 75.0366 30.742 76.0141 33.7395 76.876C36.1405 77.5664 38.2831 78.1823 39.8785 78.1623C41.6873 78.1472 43.2985 77.4224 44.4385 76.2446C44.5145 76.1691 44.5905 76.0973 44.6665 76.0256C44.7425 75.9539 44.8185 75.8822 44.8945 75.8067C46.4853 74.2539 48.2792 71.5344 50.2429 68.5573C51.7007 66.3474 53.252 63.9956 54.8833 61.8739C55.2937 61.3401 56.0949 61.339 56.507 61.8716C58.1744 64.0261 59.7623 66.4164 61.2503 68.6564C63.4114 71.9095 65.3617 74.8454 67.0383 76.28C70.3215 79.0888 73.7263 78.5603 75.9759 76.28C78.1799 74.0454 78.6967 70.6628 75.9759 67.4012C74.5389 65.6809 71.5119 63.712 68.1666 61.5361C65.951 60.095 63.5959 58.5631 61.4704 56.9523C60.9314 56.5439 60.9317 55.7456 61.4708 55.3374C63.5867 53.7356 65.9267 52.214 68.1275 50.7829C71.4686 48.6105 74.4889 46.6464 75.9177 44.9272C78.6233 41.6656 78.1521 38.253 75.9177 36.0484C73.6833 33.8589 70.2329 33.3606 66.9801 36.0484C65.2619 37.4782 63.2881 40.4654 61.1054 43.7693C59.6596 45.9576 58.1223 48.2846 56.5065 50.39C56.0949 50.9262 55.2899 50.9258 54.879 50.3888C53.2853 48.3056 51.7694 46.005 50.3411 43.8375C48.1423 40.5006 46.1515 37.4795 44.4055 36.0536C41.1375 33.3658 37.7023 33.849 35.4679 36.0536C33.2639 38.2582 32.7471 41.6861 35.4679 44.9326C36.9073 46.6558 39.935 48.6285 43.2816 50.8089C45.4742 52.2375 47.8037 53.7552 49.9132 55.3505C50.4517 55.7579 50.4539 56.5548 49.9173 56.9646C47.7581 58.6143 45.3637 60.1836 43.1185 61.6549C41.8046 62.5161 40.5418 63.3437 39.4073 64.1344C37.4921 65.4632 35.3641 66.4598 33.1297 67.094C30.2873 67.9094 27.1257 68.755 24.1009 68.755C20.8601 68.755 17.4498 67.7723 14.4441 66.9063C12.0505 66.2165 9.91349 65.6007 8.32326 65.6142C4.76646 65.6444 2.00006 68.453 2.00006 71.8958C2.00006 75.3386 4.76646 78.1472 8.32326 78.1774C9.90604 78.184 12.0275 77.5734 14.4054 76.8887Z" fill="#6366F1" stroke="#6366F1" stroke-width="4"/>
</svg>
