<svg width="1200" height="1200" viewBox="0 0 1000 1000" fill="black" xmlns="http://www.w3.org/2000/svg">
<rect width="1000" height="1000" fill="#ffffff"/>
<path d="M396.401 271.8C358.001 271.8 316.201 250.9 292.601 251C269.301 251.1 251.101 269.8 251.001 292.6V292.8C250.801 316.4 271.801 358.2 271.801 396.6C271.801 435 250.901 476.8 251.001 500.4C251.101 523.7 269.801 541.9 292.601 542C315.401 542.1 334.001 523.9 334.201 500.4C334.401 476.8 313.401 434.9 313.401 396.6C313.401 380.4 317.101 363.5 321.501 347.7C325.001 334.9 335.001 324.9 347.701 321.5C363.501 317.2 380.301 313.5 396.401 313.5C434.801 313.5 476.601 334.4 500.201 334.3C523.601 334.1 541.801 315.5 541.801 292.7C541.801 269.9 523.601 251.3 500.201 251.1C476.601 250.9 434.701 271.8 396.401 271.8Z" fill="#6366F1"/>
<path d="M396.401 728.2C358.001 728.2 316.201 749.1 292.601 749C269.301 748.9 251.101 730.2 251.001 707.4V707.2C250.801 683.6 271.801 641.8 271.801 603.4C271.801 565 250.901 523.2 251.001 499.6C251.101 476.3 269.801 458.1 292.601 458C315.401 457.9 334.001 476.1 334.201 499.6C334.401 523.2 313.401 565.1 313.401 603.4C313.401 619.6 317.101 636.5 321.501 652.3C325.001 665.1 335.001 675.1 347.701 678.5C363.501 682.8 380.301 686.5 396.401 686.5C434.801 686.5 476.601 665.6 500.201 665.7C523.601 665.9 541.801 684.5 541.801 707.3C541.801 730.1 523.601 748.7 500.201 748.9C476.601 749.1 434.701 728.2 396.401 728.2Z" fill="#6366F1"/>
<path d="M749.8 292.601C749.8 269.801 731.7 251.201 708.2 251.001C684.6 250.801 642.7 271.801 604.4 271.801C566 271.801 524.2 250.901 500.6 251.001C477.2 251.201 458.9 269.801 459 292.601C459.1 315.301 477.2 334.101 500.6 334.201C524.2 334.301 566.1 313.401 604.4 313.401C642.8 313.401 684.6 334.401 708.2 334.201C731.6 334.001 749.8 315.401 749.8 292.601Z" fill="#6366F1"/>
<path d="M332.614 741.61C352.425 735.869 374.943 729.344 396.4 729.344C417.722 729.344 440.092 735.818 459.812 741.526C475.608 746.098 489.704 750.177 500.2 750.044C512.1 749.944 522.7 745.144 530.2 737.344C530.7 736.844 531.2 736.369 531.7 735.894C532.2 735.419 532.7 734.944 533.2 734.444C543.666 724.161 555.468 706.151 568.387 686.435C577.978 671.8 588.184 656.225 598.916 642.174C601.616 638.639 606.887 638.632 609.598 642.159C620.568 656.427 631.015 672.257 640.804 687.091C655.022 708.635 667.853 728.078 678.883 737.579C700.483 756.18 722.883 752.68 737.683 737.579C752.183 722.78 755.583 700.379 737.683 678.779C728.229 667.386 708.315 654.347 686.306 639.937C671.73 630.393 656.236 620.248 642.252 609.581C638.706 606.876 638.708 601.589 642.255 598.886C656.175 588.278 671.57 578.201 686.049 568.724C708.03 554.337 727.9 541.33 737.3 529.944C755.1 508.344 752 485.744 737.3 471.144C722.6 456.644 699.9 453.344 678.5 471.144C667.196 480.613 654.211 500.396 639.851 522.276C630.339 536.768 620.225 552.179 609.595 566.122C606.887 569.673 601.591 569.67 598.888 566.114C588.403 552.318 578.43 537.082 569.033 522.728C554.567 500.629 541.47 480.622 529.983 471.179C508.483 453.379 485.883 456.579 471.183 471.179C456.683 485.779 453.283 508.48 471.183 529.98C480.653 541.392 500.572 554.456 522.589 568.896C537.014 578.357 552.34 588.408 566.218 598.973C569.761 601.671 569.775 606.948 566.245 609.662C552.04 620.587 536.287 630.98 521.516 640.724C512.872 646.427 504.564 651.908 497.1 657.144C484.5 665.944 470.5 672.544 455.8 676.744C437.1 682.144 416.3 687.744 396.4 687.744C375.079 687.744 352.643 681.236 332.869 675.501C317.121 670.933 303.062 666.855 292.6 666.944C269.2 667.144 251 685.744 251 708.544C251 731.344 269.2 749.944 292.6 750.144C303.013 750.188 316.97 746.144 332.614 741.61Z" fill="#6366F1"/>
</svg>
